<?xml version="1.0" encoding="UTF-8"?>
<svg version="1.1" xmlns="http://www.w3.org/2000/svg" width="512" height="512">
<path d="M0 0 C0.97589796 -0.00525911 0.97589796 -0.00525911 1.97151104 -0.01062447 C4.16673504 -0.01997979 6.36169616 -0.01500466 8.5569315 -0.01015663 C10.14059544 -0.01389081 11.72425754 -0.0184914 13.3079167 -0.02388728 C17.67164155 -0.0361613 22.03528999 -0.03585166 26.39902818 -0.03349853 C31.10053949 -0.03309147 35.80202593 -0.04411877 40.50352573 -0.05361366 C49.7187637 -0.07024833 58.93397608 -0.07572431 68.14922779 -0.07683842 C75.63673148 -0.07778765 83.1242267 -0.08189167 90.61172771 -0.08823967 C111.82335582 -0.10585817 133.03496366 -0.11507749 154.24659913 -0.11357872 C155.39085833 -0.11349881 156.53511753 -0.1134189 157.71405125 -0.11333656 C158.85970157 -0.1132548 160.0053519 -0.11317304 161.1857189 -0.1130888 C179.76119124 -0.11227554 198.33658257 -0.13142161 216.91203146 -0.1596133 C235.96868067 -0.18830795 255.02529032 -0.20215551 274.08196169 -0.20042574 C284.78750946 -0.1997607 295.49297228 -0.20530313 306.19850063 -0.22678185 C315.31193595 -0.24494865 324.42524782 -0.24937811 333.53869336 -0.235763 C338.1913334 -0.22921073 342.84373629 -0.22919712 347.4963541 -0.2464695 C351.75194559 -0.26210596 356.00711002 -0.25943408 360.26269049 -0.24190123 C361.80573227 -0.23881041 363.34880519 -0.24254134 364.89181029 -0.25362138 C366.9830897 -0.26764902 369.07285159 -0.25723292 371.16407776 -0.24050903 C372.32743351 -0.24094377 373.49078927 -0.24137851 374.68939823 -0.24182642 C378.29354014 0.36679247 379.44326308 1.39279143 381.64495945 4.25726891 C382.98360226 8.27319734 382.77563716 12.13201174 382.75848484 16.3185482 C382.75863087 17.24557549 382.75877689 18.17260277 382.75892735 19.12772179 C382.75822999 22.19566744 382.75044582 25.26355259 382.7426157 28.33148766 C382.74075089 30.4571231 382.73932729 32.58275898 382.73832798 34.708395 C382.73450774 40.30615994 382.72468164 45.90389898 382.713624 51.50165367 C382.70339929 57.21250623 382.69882808 62.92336296 382.69378757 68.63422203 C382.68305896 79.84191571 382.66598842 91.04959015 382.64495945 102.25726891 C383.19957859 102.24679527 383.75419773 102.23632164 384.32562351 102.22553062 C386.84868904 102.18384886 389.37168198 102.15790453 391.89495945 102.13226891 C392.76765476 102.11551109 393.64035007 102.09875328 394.5394907 102.08148766 C395.38382664 102.07504234 396.22816257 102.06859703 397.09808445 102.06195641 C397.87313328 102.05148277 398.64818211 102.04100914 399.44671726 102.03021812 C401.97338536 102.29119117 403.50785711 102.89281126 405.64495945 104.25726891 C408.23491386 108.14220053 407.89721487 111.36294127 407.84027195 115.86273766 C407.83602711 117.12154495 407.83602711 117.12154495 407.83169651 118.4057827 C407.8205033 121.08558994 407.79540046 123.76506272 407.76995945 126.44476891 C407.75992853 128.26182137 407.75080288 130.07887907 407.7426157 131.89594078 C407.72056679 136.34984565 407.68604296 140.80350057 407.64495945 145.25726891 C408.85732273 145.17025719 408.85732273 145.17025719 410.0941782 145.08148766 C411.16281101 145.03637047 412.23144382 144.99125328 413.33245945 144.94476891 C414.38820164 144.88676109 415.44394382 144.82875328 416.5316782 144.76898766 C419.64495945 145.25726891 419.64495945 145.25726891 422.49798679 147.07367516 C425.67312758 151.78186663 425.36252594 155.94498374 425.30902195 161.50726891 C425.31380558 162.59813805 425.31858921 163.68900719 425.3235178 164.81293297 C425.32691558 167.11600756 425.31772188 169.41913046 425.29681492 171.72211266 C425.27005005 175.24534308 425.29656946 178.76538746 425.3285532 182.28851891 C425.32524908 184.52810926 425.31884282 186.76769764 425.30902195 189.00726891 C425.3191431 190.05946617 425.32926426 191.11166344 425.33969212 192.19574547 C425.26831675 196.65431161 425.05349465 199.52682712 422.85345554 203.46039391 C419.64495945 205.25726891 419.64495945 205.25726891 407.64495945 205.25726891 C407.64495945 300.62726891 407.64495945 395.99726891 407.64495945 494.25726891 C418.86495945 494.25726891 430.08495945 494.25726891 441.64495945 494.25726891 C441.64495945 500.19726891 441.64495945 506.13726891 441.64495945 512.25726891 C272.68495945 512.25726891 103.72495945 512.25726891 -70.35504055 512.25726891 C-70.35504055 506.31726891 -70.35504055 500.37726891 -70.35504055 494.25726891 C-59.13504055 494.25726891 -47.91504055 494.25726891 -36.35504055 494.25726891 C-36.35504055 398.88726891 -36.35504055 303.51726891 -36.35504055 205.25726891 C-40.31504055 205.25726891 -44.27504055 205.25726891 -48.35504055 205.25726891 C-51.56353664 203.46039391 -51.56353664 203.46039391 -53.35504055 200.25726891 C-54.04932027 196.49565223 -54.05581995 192.82436502 -54.01910305 189.00726891 C-54.02388668 187.91639977 -54.02867031 186.82553062 -54.0335989 185.70160484 C-54.03699668 183.39853025 -54.02780298 181.09540735 -54.00689602 178.79242516 C-53.98013115 175.26919473 -54.00665057 171.74915035 -54.0386343 168.22601891 C-54.03533018 165.98642855 -54.02892392 163.74684017 -54.01910305 161.50726891 C-54.02922421 160.45507164 -54.03934536 159.40287437 -54.04977322 158.31879234 C-53.97471837 153.63038201 -53.87570276 151.02932204 -51.20806789 147.07367516 C-47.82500352 144.91981593 -46.01428517 144.72654118 -42.04254055 144.94476891 C-40.97390774 144.98988609 -39.90527493 145.03500328 -38.8042593 145.08148766 C-37.99601711 145.13949547 -37.18777493 145.19750328 -36.35504055 145.25726891 C-36.37598782 144.12708336 -36.39693508 142.99689781 -36.41851711 141.83246422 C-36.49096751 137.63565321 -36.53685839 133.43889738 -36.57476711 129.24164391 C-36.59487116 127.42579411 -36.6221589 125.61000896 -36.65679836 123.79437828 C-36.70537094 121.18288785 -36.72802082 118.57225392 -36.74566555 115.96039391 C-36.76631069 115.14983543 -36.78695583 114.33927696 -36.80822659 113.50415611 C-36.80968166 109.84154117 -36.71801785 107.73147216 -34.45562649 104.77582359 C-31.38740942 102.55774942 -29.73743507 102.13471961 -26.00347805 102.15961266 C-24.72730618 102.16444664 -24.72730618 102.16444664 -23.42535305 102.16937828 C-22.53589993 102.17775719 -21.6464468 102.18613609 -20.73004055 102.19476891 C-19.83285305 102.19928062 -18.93566555 102.20379234 -18.01129055 102.20844078 C-15.79247407 102.220243 -13.57379037 102.23670735 -11.35504055 102.25726891 C-11.35948177 101.07820473 -11.363923 99.89914055 -11.3684988 98.68434715 C-11.40903427 87.57522685 -11.43901988 76.46612155 -11.45866489 65.35694408 C-11.46910407 59.6455464 -11.48326584 53.93420841 -11.50591946 48.22284508 C-11.52764287 42.71153934 -11.53960817 37.20029102 -11.54479504 31.68894577 C-11.54849168 29.5857986 -11.55571022 27.48265459 -11.56650066 25.37953186 C-11.58100878 22.43481835 -11.58301876 19.49034245 -11.58209133 16.54559898 C-11.58928188 15.6752552 -11.59647243 14.80491142 -11.60388088 13.90819359 C-11.58929624 9.63136775 -11.54181836 6.06770662 -9.35504055 2.25726891 C-5.78146147 -0.12511715 -4.2434877 0.00513968 0 0 Z M6.64495945 18.25726891 C6.64495945 45.97726891 6.64495945 73.69726891 6.64495945 102.25726891 C124.78495945 102.25726891 242.92495945 102.25726891 364.64495945 102.25726891 C364.64495945 74.53726891 364.64495945 46.81726891 364.64495945 18.25726891 C246.50495945 18.25726891 128.36495945 18.25726891 6.64495945 18.25726891 Z M-18.35504055 120.25726891 C-18.35504055 128.50726891 -18.35504055 136.75726891 -18.35504055 145.25726891 C116.28495945 145.25726891 250.92495945 145.25726891 389.64495945 145.25726891 C389.64495945 137.00726891 389.64495945 128.75726891 389.64495945 120.25726891 C255.00495945 120.25726891 120.36495945 120.25726891 -18.35504055 120.25726891 Z M-35.35504055 163.25726891 C-35.35504055 171.17726891 -35.35504055 179.09726891 -35.35504055 187.25726891 C110.50495945 187.25726891 256.36495945 187.25726891 406.64495945 187.25726891 C406.64495945 179.33726891 406.64495945 171.41726891 406.64495945 163.25726891 C260.78495945 163.25726891 114.92495945 163.25726891 -35.35504055 163.25726891 Z M-18.35504055 205.25726891 C-18.35504055 300.62726891 -18.35504055 395.99726891 -18.35504055 494.25726891 C116.28495945 494.25726891 250.92495945 494.25726891 389.64495945 494.25726891 C389.64495945 398.88726891 389.64495945 303.51726891 389.64495945 205.25726891 C255.00495945 205.25726891 120.36495945 205.25726891 -18.35504055 205.25726891 Z " fill="#f54a00" transform="translate(70.35504055023193,-0.25726890563964844)"/>
<path d="M0 0 C1.20144653 -0.00953201 2.40289307 -0.01906403 3.64074707 -0.02888489 C4.92525757 -0.02797348 6.20976807 -0.02706207 7.53320312 -0.02612305 C8.87789033 -0.03001514 10.22257632 -0.03435086 11.56726074 -0.03910828 C14.37805172 -0.04654721 17.18871703 -0.04629572 19.99951172 -0.04101562 C23.59064145 -0.03521675 27.18125612 -0.05217273 30.77230072 -0.0753603 C33.54680355 -0.09013237 36.3211832 -0.09096478 39.09571838 -0.08785057 C41.05988844 -0.08860921 43.02403946 -0.10244893 44.98815918 -0.11653137 C46.79032898 -0.10718819 46.79032898 -0.10718819 48.62890625 -0.09765625 C49.6811438 -0.09828568 50.73338135 -0.0989151 51.81750488 -0.0995636 C55.37794711 0.34502036 57.75717331 1.41663466 60.81445312 3.2746582 C63.41356273 7.17332261 63.10985204 10.45762707 63.10498047 14.98120117 C63.11169769 15.87093628 63.11841492 16.76067139 63.12533569 17.67736816 C63.14436144 20.62391721 63.14824223 23.57023902 63.15039062 26.5168457 C63.15681551 28.56324356 63.16354363 30.60964048 63.17056274 32.65603638 C63.18254706 36.94836558 63.18624239 41.24061423 63.18505859 45.53295898 C63.18485537 51.03335443 63.21215587 56.53323337 63.24660301 62.03350639 C63.26884019 66.2611427 63.27289711 70.48865411 63.27183914 74.71634293 C63.27419996 76.74413966 63.28305046 78.77193958 63.29850388 80.7996788 C63.31809879 83.63659576 63.31235129 86.47239118 63.30029297 89.30932617 C63.31153198 90.1469046 63.322771 90.98448303 63.33435059 91.84744263 C63.29151441 95.81315682 63.09565049 97.81722762 60.97158813 101.27249146 C57.45074845 104.54039454 54.3996006 104.40700666 49.78588867 104.43579102 C47.92331673 104.45020233 47.92331673 104.45020233 46.02311707 104.46490479 C44.66580387 104.46975327 43.30848854 104.47403197 41.95117188 104.4777832 C40.55735778 104.48353784 39.16354369 104.48929553 37.76972961 104.49505615 C34.84688957 104.50555783 31.92407696 104.51140572 29.0012207 104.51489258 C25.26543541 104.52037116 21.53001571 104.54438866 17.7943449 104.57286453 C14.91434183 104.59153806 12.03442593 104.59669904 9.15436745 104.59822845 C7.77771827 104.60124563 6.40107029 104.60924253 5.02448082 104.62241364 C3.09346163 104.63956849 1.16229101 104.63573549 -0.76879883 104.63110352 C-1.86561478 104.63474915 -2.96243073 104.63839478 -4.09248352 104.64215088 C-7.76746606 104.20551929 -10.09304615 103.3070952 -13.18554688 101.2746582 C-15.80446832 97.12188409 -15.47504701 92.48964733 -15.46020508 87.72412109 C-15.46531601 86.87471451 -15.47042694 86.02530792 -15.47569275 85.15016174 C-15.48956514 82.34914049 -15.4886338 79.54836593 -15.48632812 76.74731445 C-15.49021624 74.79585173 -15.49455115 72.84438986 -15.49931335 70.89292908 C-15.50677042 66.80505631 -15.50648791 62.71726991 -15.5012207 58.62939453 C-15.49542562 53.39602935 -15.51236056 48.16301802 -15.53556538 42.92971134 C-15.55031081 38.90020182 -15.55117333 34.87077737 -15.54805565 30.84124565 C-15.54856841 28.91197445 -15.55379775 26.98269843 -15.56386757 25.05345345 C-15.57623081 22.35359954 -15.5694411 19.65443309 -15.55786133 16.95458984 C-15.56550507 16.16115173 -15.5731488 15.36771362 -15.58102417 14.55023193 C-15.53595947 9.78654005 -15.05217794 6.27258748 -12.18554688 2.2746582 C-8.13359594 0.31033614 -4.45978167 0.01952787 0 0 Z M2.81445312 18.2746582 C2.81445312 40.7146582 2.81445312 63.1546582 2.81445312 86.2746582 C16.67445312 86.2746582 30.53445312 86.2746582 44.81445312 86.2746582 C44.81445312 63.8346582 44.81445312 41.3946582 44.81445312 18.2746582 C30.95445313 18.2746582 17.09445313 18.2746582 2.81445312 18.2746582 Z " fill="#f54a00" transform="translate(91.185546875,365.725341796875)"/>
<path d="M0 0 C1.2015976 -0.00960754 2.40319519 -0.01921509 3.64120483 -0.02911377 C5.58345444 -0.03548859 5.58345444 -0.03548859 7.56494141 -0.04199219 C8.91248576 -0.04774899 10.26003011 -0.05350665 11.60757446 -0.05926514 C14.43028137 -0.06975508 17.25295996 -0.07561098 20.07568359 -0.07910156 C23.68253017 -0.08458479 27.28899898 -0.10861715 30.89572716 -0.13707352 C33.67879309 -0.15574835 36.46176884 -0.16090804 39.24489212 -0.16243744 C41.21794257 -0.16691392 43.19094464 -0.18553464 45.16390991 -0.20440674 C46.37181183 -0.20140564 47.57971375 -0.19840454 48.82421875 -0.1953125 C50.41162369 -0.20078094 50.41162369 -0.20078094 52.03109741 -0.20635986 C55.60284482 0.229658 57.97682187 1.29614971 61.04150391 3.16113281 C63.64061351 7.05979722 63.33690282 10.34410168 63.33203125 14.86767578 C63.33874847 15.75741089 63.3454657 16.647146 63.35238647 17.56384277 C63.37141222 20.51039182 63.37529301 23.45671363 63.37744141 26.40332031 C63.38386629 28.44971816 63.39059441 30.49611509 63.39761353 32.54251099 C63.40959784 36.83484019 63.41329317 41.12708884 63.41210938 45.41943359 C63.41190615 50.91982904 63.43920666 56.41970798 63.47365379 61.919981 C63.49589097 66.14761731 63.49994789 70.37512872 63.49888992 74.60281754 C63.50125074 76.63061427 63.51010124 78.65841419 63.52555466 80.68615341 C63.54514957 83.52307037 63.53940207 86.35886579 63.52734375 89.19580078 C63.53858276 90.03337921 63.54982178 90.87095764 63.56140137 91.73391724 C63.5185652 95.69963143 63.32270127 97.70370223 61.19863892 101.15896606 C57.67779923 104.42686915 54.62665138 104.29348127 50.01293945 104.32226562 C48.15036751 104.33667694 48.15036751 104.33667694 46.25016785 104.35137939 C44.89285465 104.35622788 43.53553932 104.36050658 42.17822266 104.36425781 C40.78440856 104.37001245 39.39059447 104.37577014 37.9967804 104.38153076 C35.07394035 104.39203244 32.15112774 104.39788033 29.22827148 104.40136719 C25.49248619 104.40684577 21.75706649 104.43086327 18.02139568 104.45933914 C15.14139261 104.47801267 12.26147671 104.48317365 9.38141823 104.48470306 C8.00476905 104.48772024 6.62812107 104.49571714 5.2515316 104.50888824 C3.32051241 104.5260431 1.38934179 104.5222101 -0.54174805 104.51757812 C-1.638564 104.52122375 -2.73537994 104.52486938 -3.86543274 104.52862549 C-7.54041528 104.0919939 -9.86599537 103.19356981 -12.95849609 101.16113281 C-15.5807285 97.00502396 -15.24798007 92.36446596 -15.2331543 87.59472656 C-15.23826523 86.74371368 -15.24337616 85.89270081 -15.24864197 85.01589966 C-15.26251296 82.21007201 -15.26158331 79.40449062 -15.25927734 76.59863281 C-15.26316517 74.64477446 -15.26750002 72.69091696 -15.27226257 70.73706055 C-15.27971907 66.64499164 -15.27943728 62.55300902 -15.27416992 58.4609375 C-15.268371 53.21850614 -15.28531932 47.97642758 -15.3085146 42.73405457 C-15.32324812 38.7002964 -15.32412424 34.66662333 -15.32100487 30.63284302 C-15.3215181 28.69995423 -15.32675628 26.76706068 -15.33681679 24.834198 C-15.3491587 22.13174502 -15.34240345 19.42998107 -15.33081055 16.72753906 C-15.34227615 15.53198898 -15.34227615 15.53198898 -15.35397339 14.31228638 C-15.29868657 8.47887237 -14.04535096 5.24798768 -9.95849609 1.16113281 C-6.66252605 0.0046823 -3.46975687 0.02242073 0 0 Z M3.04150391 18.16113281 C3.04150391 40.60113281 3.04150391 63.04113281 3.04150391 86.16113281 C16.90150391 86.16113281 30.76150391 86.16113281 45.04150391 86.16113281 C45.04150391 63.72113281 45.04150391 41.28113281 45.04150391 18.16113281 C31.18150391 18.16113281 17.32150391 18.16113281 3.04150391 18.16113281 Z " fill="#f54a00" transform="translate(235.95849609375,365.8388671875)"/>
<path d="M0 0 C1.20490082 -0.00637985 2.40980164 -0.0127597 3.6512146 -0.01933289 C4.95434601 -0.02044571 6.25747742 -0.02155853 7.60009766 -0.02270508 C8.95146724 -0.02591914 10.30283647 -0.02928333 11.65420532 -0.03279114 C14.48708909 -0.03877815 17.31994238 -0.0406315 20.15283203 -0.04003906 C23.77653649 -0.03993752 27.40004465 -0.0535832 31.02370262 -0.07081127 C33.81530651 -0.08195008 36.60686325 -0.08395769 39.39848709 -0.08342934 C41.38207704 -0.08517817 43.36565227 -0.09600786 45.34921265 -0.10697937 C46.56041779 -0.10390274 47.77162292 -0.10082611 49.01953125 -0.09765625 C50.08303802 -0.09908127 51.1465448 -0.10050629 52.24227905 -0.10197449 C56.01918708 0.22037074 58.90196841 1.17318445 61.88916016 3.52026367 C64.94970467 7.49897153 64.29351311 12.70087417 64.30029297 17.49047852 C64.30774033 18.749739 64.30774033 18.749739 64.31533813 20.03443909 C64.32992902 22.80836815 64.33675622 25.58224005 64.34228516 28.35620117 C64.34803862 30.28667197 64.35379633 32.21714275 64.35955811 34.14761353 C64.37005898 38.19435899 64.3759078 42.24108463 64.37939453 46.2878418 C64.38488093 51.46852612 64.40891597 56.64894784 64.43736649 61.82954979 C64.45600525 65.81701418 64.4611991 69.80441543 64.46273041 73.79191971 C64.46575406 75.70166079 64.47377289 77.61140084 64.48691559 79.52109909 C64.50400386 82.19468852 64.50208922 84.86763761 64.49560547 87.54125977 C64.50482025 88.32691818 64.51403503 89.1125766 64.52352905 89.92204285 C64.48743892 94.68186087 63.93218014 98.10875892 61.13916016 102.14526367 C57.46017768 104.32142436 54.08260718 104.40215448 49.86767578 104.41992188 C48.62288452 104.42945389 47.37809326 104.4389859 46.09558105 104.44880676 C44.7455238 104.44854534 43.39546653 104.44760834 42.04541016 104.44604492 C40.65205763 104.44993506 39.25870628 104.45427038 37.86535645 104.45903015 C34.95023751 104.46647717 32.03523974 104.46621175 29.12011719 104.4609375 C25.3909842 104.45513855 21.66234719 104.47209093 17.9332962 104.49528217 C15.05760822 104.51003655 12.18203932 104.51088904 9.30632019 104.50777245 C7.93164588 104.5082846 6.55696471 104.51350246 5.18232727 104.52358437 C3.25847182 104.53596585 1.33451573 104.52720495 -0.58935547 104.51757812 C-1.68235962 104.51820755 -2.77536377 104.51883698 -3.90148926 104.51948547 C-7.29058338 104.09092087 -9.13511407 103.17668781 -11.86083984 101.14526367 C-14.45859406 97.24863235 -14.16366504 93.96078668 -14.16723633 89.4387207 C-14.17555984 88.5489856 -14.18388336 87.65925049 -14.19245911 86.74255371 C-14.21658999 83.79601692 -14.22533492 80.84970135 -14.23193359 77.90307617 C-14.24089744 75.85667859 -14.25001924 73.8102817 -14.2592926 71.7638855 C-14.27579346 67.47156175 -14.28348474 63.1793161 -14.28637695 58.88696289 C-14.29176242 53.38646672 -14.32944484 47.88670436 -14.37512112 42.38641548 C-14.40486141 38.15877603 -14.41209985 33.93131393 -14.4131031 29.70357895 C-14.41731128 27.67576613 -14.42976942 25.64795306 -14.45062065 23.62024307 C-14.47747256 20.78314485 -14.47272817 17.94775605 -14.46020508 15.1105957 C-14.47503937 14.27301727 -14.48987366 13.43543884 -14.50515747 12.57247925 C-14.45123783 8.28349049 -14.24653387 6.63729172 -11.51087952 3.14743042 C-7.59781417 0.19101833 -4.77287336 0.01713246 0 0 Z M4.13916016 18.14526367 C4.13916016 40.58526367 4.13916016 63.02526367 4.13916016 86.14526367 C17.99916016 86.14526367 31.85916016 86.14526367 46.13916016 86.14526367 C46.13916016 63.70526367 46.13916016 41.26526367 46.13916016 18.14526367 C32.27916016 18.14526367 18.41916016 18.14526367 4.13916016 18.14526367 Z " fill="#f54a00" transform="translate(371.86083984375,365.854736328125)"/>
<path d="M0 0 C1.95762016 -0.02409439 1.95762016 -0.02409439 3.95478821 -0.04867554 C5.386763 -0.06016234 6.81874506 -0.07077099 8.25073242 -0.08056641 C8.97080664 -0.08589008 9.69088085 -0.09121376 10.4327755 -0.09669876 C14.24456086 -0.12342567 18.05631353 -0.14280147 21.86816406 -0.15722656 C25.80271931 -0.17386874 29.73643598 -0.2186426 33.67067432 -0.26959801 C36.69818569 -0.30327763 39.72549821 -0.31480465 42.75317955 -0.32045364 C44.20326836 -0.32716488 45.65334413 -0.342384 47.1032505 -0.36634445 C49.1350094 -0.398003 51.16721799 -0.39503057 53.19921875 -0.390625 C54.93223991 -0.40275528 54.93223991 -0.40275528 56.70027161 -0.41513062 C60.75352689 0.38152116 62.22683406 2.02833422 64.79370117 5.19287109 C66.05303021 8.97085822 65.94120882 12.50457563 65.93896484 16.44042969 C65.94232346 17.28139694 65.94568207 18.1223642 65.94914246 18.98881531 C65.95865284 21.7729947 65.96059564 24.55711396 65.96166992 27.34130859 C65.96488254 29.2756045 65.96824662 31.20990016 65.97175598 33.14419556 C65.97774754 37.20111657 65.97959586 41.25801628 65.97900391 45.31494141 C65.97890231 50.51250943 65.99255223 55.70994079 66.00977612 60.90747643 C66.02089694 64.90347928 66.02292308 68.89944911 66.02239418 72.89546585 C66.02357426 74.81160579 66.02799759 76.72774659 66.03572655 78.64387131 C66.0455276 81.32485258 66.04264787 84.00553736 66.03662109 86.68652344 C66.0422406 87.47734818 66.04786011 88.26817291 66.0536499 89.08296204 C66.02459435 94.17138122 65.44615997 97.77052847 62.57516479 101.97912598 C59.85821523 103.83023549 57.5500777 103.58965757 54.2902832 103.61279297 C53.63463379 103.62126251 52.97898437 103.62973206 52.3034668 103.63845825 C50.13595173 103.66185747 47.9691455 103.66284967 45.80151367 103.66162109 C44.29319983 103.66872195 42.78488869 103.67642083 41.27658081 103.68469238 C38.11407975 103.69814455 34.95182832 103.69970321 31.78930664 103.69384766 C27.74146606 103.68795649 23.69482698 103.71851352 19.6472187 103.75896454 C16.53129655 103.78485025 13.41566314 103.78771814 10.29964828 103.78407288 C8.80772766 103.78576394 7.31579368 103.79540536 5.82397842 103.81321716 C3.73381165 103.83542296 1.6460686 103.82570124 -0.4440918 103.80810547 C-2.22588333 103.81118713 -2.22588333 103.81118713 -4.04367065 103.81433105 C-8.31564764 102.97488282 -9.7158506 101.75373435 -12.20629883 98.19287109 C-12.90419683 95.16933953 -12.88017578 92.24417467 -12.83740234 89.15161133 C-12.8481353 87.79953079 -12.8481353 87.79953079 -12.85908508 86.4201355 C-12.87596589 83.44672657 -12.85657458 80.4748265 -12.83520508 77.50146484 C-12.83603376 75.43310929 -12.83849311 73.36475379 -12.84251404 71.29640198 C-12.84537153 66.96457057 -12.83067399 62.63325636 -12.80322266 58.30151367 C-12.76911894 52.74718892 -12.77516579 47.19378773 -12.79388523 41.6394186 C-12.80444931 37.36973869 -12.79552309 33.10027399 -12.78050041 28.83061409 C-12.77531524 26.78247784 -12.77580445 24.73431914 -12.78204536 22.68618584 C-12.78749118 19.82521017 -12.76714347 16.96556089 -12.73974609 14.10473633 C-12.74627197 13.25735397 -12.75279785 12.40997162 -12.75952148 11.53691101 C-12.66592439 5.79367169 -12.66592439 5.79367169 -10.29795837 2.69837952 C-6.67827648 0.09305037 -4.45047762 0.04964174 0 0 Z M5.79370117 18.19287109 C5.79370117 40.30287109 5.79370117 62.41287109 5.79370117 85.19287109 C19.65370117 85.19287109 33.51370117 85.19287109 47.79370117 85.19287109 C47.79370117 63.08287109 47.79370117 40.97287109 47.79370117 18.19287109 C33.93370117 18.19287109 20.07370117 18.19287109 5.79370117 18.19287109 Z " fill="#f54a00" transform="translate(370.206298828125,229.80712890625)"/>
<path d="M0 0 C1.96223511 -0.00934319 1.96223511 -0.00934319 3.96411133 -0.01887512 C5.38883851 -0.01018679 6.81356198 -0.00086877 8.23828125 0.0090332 C9.70271809 0.00955206 11.16715564 0.00903338 12.6315918 0.00752258 C15.69818544 0.00761222 18.7645157 0.01802303 21.83105469 0.03613281 C25.75865224 0.05881981 29.68586509 0.05936316 33.61351013 0.05261517 C36.63671274 0.04927108 39.6598279 0.05591353 42.68301392 0.0657444 C44.13106834 0.06958911 45.5791325 0.07074764 47.02719116 0.06915855 C49.05200386 0.06878704 51.07680352 0.08290264 53.1015625 0.09765625 C54.25309814 0.10226364 55.40463379 0.10687103 56.59106445 0.11161804 C59.53375895 0.3708151 61.16220438 0.66218164 63.55078125 2.37231445 C66.43536009 6.06049158 65.85363805 10.72947869 65.85717773 15.19238281 C65.86550125 16.08226395 65.87382477 16.97214508 65.88240051 17.88899231 C65.90649258 20.83009212 65.91527096 23.7709702 65.921875 26.7121582 C65.93084076 28.75712654 65.9399626 30.80209419 65.94923401 32.84706116 C65.96572358 37.13340856 65.97342428 41.41967783 65.97631836 45.70605469 C65.98170717 51.19867509 66.0194082 56.6905618 66.06506252 62.18297482 C66.09479998 66.40632309 66.10204117 70.62949382 66.10304451 74.8529377 C66.10725211 76.87795948 66.11970796 78.90298154 66.14056206 80.92790031 C66.16741221 83.76010082 66.16267048 86.59058887 66.15014648 89.42285156 C66.16498077 90.25885895 66.17981506 91.09486633 66.19509888 91.95620728 C66.14307399 96.08677909 65.86824153 97.91920402 63.43496704 101.39221191 C59.93343595 103.79614533 58.02848123 103.99998924 53.80444336 104.00341797 C53.1468956 104.01057327 52.48934784 104.01772858 51.81187439 104.02510071 C49.64990633 104.04193689 47.4900269 104.02262152 45.328125 104.0012207 C43.82027516 104.00204979 42.3124254 104.00451069 40.80458069 104.00852966 C37.64963468 104.011384 34.49540006 103.99672172 31.34057617 103.96923828 C27.29949578 103.9351256 23.25968455 103.94118619 19.21854305 103.95990086 C16.10691268 103.97047511 12.99557705 103.96152991 9.88397408 103.94651604 C8.3940576 103.94133878 6.90411028 103.94181052 5.41419792 103.94806099 C3.33136785 103.95352003 1.25034823 103.93312237 -0.83227539 103.90576172 C-2.01632462 103.89956314 -3.20037384 103.89336456 -4.42030334 103.88697815 C-8.08899754 103.26360527 -9.24911254 102.32990137 -11.44921875 99.37231445 C-12.72132771 95.29919941 -12.59690388 91.23918028 -12.59448242 87.01123047 C-12.59784103 86.17011719 -12.60119965 85.32900391 -12.60466003 84.46240234 C-12.61415422 81.68366008 -12.6161123 78.90497817 -12.6171875 76.1262207 C-12.62040085 74.19335404 -12.62376498 72.26048761 -12.62727356 70.32762146 C-12.63326078 66.2766768 -12.63511385 62.22575346 -12.63452148 58.17480469 C-12.63441982 52.98511241 -12.64807857 47.79555682 -12.66529369 42.60589695 C-12.67641339 38.6141853 -12.67844071 34.62250672 -12.67791176 30.63078117 C-12.67909167 28.71743231 -12.68351404 26.80408259 -12.69124413 24.89074898 C-12.70104451 22.21466623 -12.6981659 19.53888053 -12.69213867 16.86279297 C-12.69775818 16.07353928 -12.70337769 15.28428558 -12.70916748 14.47111511 C-12.67945152 9.2772791 -12.41483349 5.4147611 -8.72729492 1.58308411 C-5.69006346 -0.03116731 -3.43521866 -0.00187768 0 0 Z M5.55078125 18.37231445 C5.55078125 40.48231445 5.55078125 62.59231445 5.55078125 85.37231445 C19.41078125 85.37231445 33.27078125 85.37231445 47.55078125 85.37231445 C47.55078125 63.26231445 47.55078125 41.15231445 47.55078125 18.37231445 C33.69078125 18.37231445 19.83078125 18.37231445 5.55078125 18.37231445 Z " fill="#f54a00" transform="translate(233.44921875,229.627685546875)"/>
<path d="M0 0 C1.96223511 -0.00934319 1.96223511 -0.00934319 3.96411133 -0.01887512 C5.38883851 -0.01018679 6.81356198 -0.00086877 8.23828125 0.0090332 C9.70271809 0.00955206 11.16715564 0.00903338 12.6315918 0.00752258 C15.69818544 0.00761222 18.7645157 0.01802303 21.83105469 0.03613281 C25.75865224 0.05881981 29.68586509 0.05936316 33.61351013 0.05261517 C36.63671274 0.04927108 39.6598279 0.05591353 42.68301392 0.0657444 C44.13106834 0.06958911 45.5791325 0.07074764 47.02719116 0.06915855 C49.05200386 0.06878704 51.07680352 0.08290264 53.1015625 0.09765625 C54.25309814 0.10226364 55.40463379 0.10687103 56.59106445 0.11161804 C59.53375895 0.3708151 61.16220438 0.66218164 63.55078125 2.37231445 C66.42643823 6.05127764 65.83125865 10.66864699 65.80957031 15.11645508 C65.81307495 15.99818893 65.81657959 16.87992279 65.82019043 17.78837585 C65.82899013 20.70185223 65.82316477 23.61508562 65.81640625 26.52856445 C65.81775341 28.55350796 65.81969436 30.57845115 65.82220459 32.60339355 C65.82515347 36.84687378 65.82086576 41.0902698 65.81152344 45.33374023 C65.80012908 50.77464755 65.80668981 56.21535755 65.81866837 61.65625763 C65.82589331 65.83751921 65.8235961 70.01873396 65.81841278 74.19999695 C65.81707804 76.20627363 65.81871785 78.21255456 65.82337189 80.21882629 C65.82844748 83.0220568 65.82071225 85.82496718 65.80957031 88.62817383 C65.81361877 89.45842575 65.81766724 90.28867767 65.82183838 91.14408875 C65.76849564 98.38369846 65.76849564 98.38369846 63.55078125 101.37231445 C59.95420096 103.77003465 58.30872286 103.63542378 54.03149414 103.6628418 C53.37423843 103.66955902 52.71698273 103.67627625 52.03981018 103.68319702 C49.86760902 103.70219144 47.69571653 103.70610175 45.5234375 103.70825195 C44.01272962 103.71467848 42.502023 103.72140673 40.99131775 103.72842407 C37.8246675 103.74040012 34.65812638 103.74410453 31.49145508 103.74291992 C27.43473735 103.74271661 23.37871925 103.77002869 19.3221674 103.80446434 C16.20202931 103.82670644 13.08206038 103.83075832 9.96185112 103.82970047 C8.46631901 103.83206011 6.97078249 103.84090418 5.47532845 103.8563652 C3.38287524 103.87597416 1.29194083 103.87020953 -0.80053711 103.8581543 C-1.99061874 103.86100433 -3.18070038 103.86385437 -4.40684509 103.86679077 C-8.07599945 103.27044392 -9.2201319 102.29190502 -11.44921875 99.37231445 C-12.71740077 95.56776841 -12.59671615 91.9969359 -12.59448242 88.03295898 C-12.59784103 87.18223816 -12.60119965 86.33151733 -12.60466003 85.45501709 C-12.61417091 82.63837225 -12.61611324 79.82178686 -12.6171875 77.00512695 C-12.62040008 75.0484108 -12.62376416 73.09169489 -12.62727356 71.13497925 C-12.63326524 67.03097985 -12.63511343 62.92700151 -12.63452148 58.82299805 C-12.63441988 53.56489651 -12.64806992 48.30693007 -12.66529369 43.04886055 C-12.67641404 39.00653463 -12.67844068 34.96424136 -12.67791176 30.9219017 C-12.6790919 28.98343312 -12.68351562 27.0449637 -12.69124413 25.10651016 C-12.70104423 22.39439697 -12.69816581 19.68257692 -12.69213867 16.97045898 C-12.69775818 16.17028351 -12.70337769 15.37010803 -12.70916748 14.54568481 C-12.67968748 9.32379726 -12.43565371 5.43639514 -8.72729492 1.58308411 C-5.69006346 -0.03116731 -3.43521866 -0.00187768 0 0 Z M5.55078125 18.37231445 C5.55078125 40.48231445 5.55078125 62.59231445 5.55078125 85.37231445 C19.41078125 85.37231445 33.27078125 85.37231445 47.55078125 85.37231445 C47.55078125 63.26231445 47.55078125 41.15231445 47.55078125 18.37231445 C33.69078125 18.37231445 19.83078125 18.37231445 5.55078125 18.37231445 Z " fill="#f54a00" transform="translate(88.44921875,229.627685546875)"/>
<path d="M0 0 C6.70996397 5.83824216 10.52580081 11.6457509 11.30859375 20.484375 C11.63610008 30.36911164 10.61183074 38.37992379 3.8125 45.875 C-3.77938625 52.62157118 -11.33420646 53.73024819 -21.25 53.31640625 C-28.94122416 52.66745921 -34.92889242 49.92246141 -40 44 C-45.19736997 35.61974455 -47.39924617 27.21658458 -45.50390625 17.44140625 C-42.92471859 7.86781138 -38.97020545 3.10147433 -30.40234375 -1.8359375 C-21.27947295 -6.25645051 -8.48816887 -5.48715249 0 0 Z M-31.3125 12.5625 C-35.14044584 18.0917551 -34.54306785 24.52907885 -34 31 C-32.73846999 35.59917796 -30.8046568 38.28678147 -27.25 41.4375 C-21.64349768 44.13293381 -17.22042467 44.58622316 -11.3125 42.9375 C-5.69972273 40.80851552 -3.1849035 37.5955029 -0.6875 32.125 C0.87148935 25.03868477 0.23693512 19.43254767 -3 13 C-5.33265257 9.53864457 -7.13606906 7.53748037 -11 6 C-19.77426039 4.94904402 -25.25395546 5.84897767 -31.3125 12.5625 Z " fill="#f54a00" transform="translate(234,33)"/>
<path d="M0 0 C3.63 0 7.26 0 11 0 C11 7.92 11 15.84 11 24 C19.58 24 28.16 24 37 24 C37 16.08 37 8.16 37 0 C40.63 0 44.26 0 48 0 C48 18.81 48 37.62 48 57 C44.37 57 40.74 57 37 57 C37 49.08 37 41.16 37 33 C28.42 33 19.84 33 11 33 C11 40.92 11 48.84 11 57 C7.37 57 3.74 57 0 57 C0 38.19 0 19.38 0 0 Z " fill="#f54a00" transform="translate(133,29)"/>
<path d="M0 0 C11.88 0 23.76 0 36 0 C36 3.3 36 6.6 36 10 C28.08 10 20.16 10 12 10 C12 14.62 12 19.24 12 24 C18.27 24 24.54 24 31 24 C31 26.97 31 29.94 31 33 C24.73 33 18.46 33 12 33 C12 37.95 12 42.9 12 48 C19.92 48 27.84 48 36 48 C36 50.97 36 53.94 36 57 C24.12 57 12.24 57 0 57 C0 38.19 0 19.38 0 0 Z " fill="#f54a00" transform="translate(295,29)"/>
<path d="M0 0 C14.85 0 29.7 0 45 0 C45 3.3 45 6.6 45 10 C39.39 10 33.78 10 28 10 C28 25.51 28 41.02 28 57 C24.37 57 20.74 57 17 57 C17 41.49 17 25.98 17 10 C11.39 10 5.78 10 0 10 C0 6.7 0 3.4 0 0 Z " fill="#f54a00" transform="translate(245,29)"/>
<path d="M0 0 C3.96 0 7.92 0 12 0 C12 15.51 12 31.02 12 47 C19.26 47 26.52 47 34 47 C34 50.3 34 53.6 34 57 C22.78 57 11.56 57 0 57 C0 38.19 0 19.38 0 0 Z " fill="#f54a00" transform="translate(339,29)"/>
</svg>
